<?xml version="1.0" encoding="UTF-8" standalone="no"?>
<svg
   xmlns:dc="http://purl.org/dc/elements/1.1/"
   xmlns:cc="http://creativecommons.org/ns#"
   xmlns:rdf="http://www.w3.org/1999/02/22-rdf-syntax-ns#"
   xmlns:svg="http://www.w3.org/2000/svg"
   xmlns="http://www.w3.org/2000/svg"
   viewBox="0 0 34 33"
   version="1.1">
  <g transform="translate(-30.64973,-44.714601)">
    <circle
       style="fill:#000000;fill-opacity:1;stroke:#00ffff;stroke-width:0;stroke-miterlimit:4;stroke-dasharray:none;stroke-opacity:1"
       cx="47.673046"
       cy="61.489521"
       r="11.019951"
       />
    <path
       style="fill:#ffffff;fill-opacity:1;stroke-width:1.09850001"
       d="m 63.436666,57.001907 -2.507985,-1.487369 c -1.174187,-0.698756 -1.899964,-1.986967 -1.899964,-3.380634 v -2.974628 c 0,-0.608975 -0.269794,-1.182865 -0.729627,-1.565362 -1.367961,-1.135959 -2.906959,-2.057271 -4.571295,-2.716921 -0.554854,-0.218601 -1.174188,-0.175661 -1.687187,0.128822 l -2.511721,1.491213 c -1.174186,0.698767 -2.622009,0.698767 -3.799931,0 l -2.51183,-1.491213 c -0.512999,-0.304483 -1.136179,-0.351334 -1.687186,-0.128822 -1.668182,0.659727 -3.203335,1.580962 -4.567563,2.713076 -0.459788,0.382553 -0.729579,0.956398 -0.729579,1.565362 v 2.974628 c 0,1.393558 -0.72199,2.681878 -1.899966,3.380634 l -2.507985,1.487259 c -0.513,0.304504 -0.862586,0.831565 -0.953784,1.432664 -0.140597,0.88616 -0.209001,1.791873 -0.209001,2.713075 0,0.921312 0.0684,1.826916 0.2052,2.709121 0.0912,0.601209 0.440795,1.132114 0.953784,1.436618 l 2.507985,1.487259 c 1.174187,0.698756 1.899966,1.986967 1.899966,3.380634 v 2.97463 c 0,0.608896 0.269791,1.182753 0.72958,1.565362 1.364227,1.132004 2.903115,2.053315 4.567562,2.713074 0.554776,0.218602 1.174187,0.175649 1.687186,-0.128854 l 2.51172,-1.491213 c 1.174187,-0.698757 2.6219,-0.698757 3.799932,0 l 2.511721,1.491213 c 0.512998,0.304503 1.136178,0.347456 1.687185,0.128854 1.664447,-0.659759 3.203336,-1.58107 4.567563,-2.713074 0.459833,-0.382609 0.729623,-0.956466 0.729623,-1.565362 v -2.97463 c 0,-1.393667 0.725779,-2.681878 1.899965,-3.380634 l 2.507877,-1.487259 c 0.512999,-0.304504 0.86265,-0.831454 0.953829,-1.436618 0.133027,-0.882205 0.205197,-1.787809 0.205197,-2.709121 0,-0.921202 -0.06843,-1.826915 -0.205197,-2.70912 -0.08744,-0.601209 -0.43325,-1.12816 -0.94614,-1.432664 z M 47.629251,71.617448 c -5.627725,0 -10.191443,-4.688397 -10.191443,-10.469692 0,-5.781406 4.563718,-10.469694 10.191443,-10.469694 5.627616,0 10.191335,4.688288 10.191335,10.469694 0,5.781295 -4.563719,10.469692 -10.191335,10.469692 z"
       />
  </g>
</svg>
